<svg width="183" height="15" viewBox="0 0 183 15" fill="none" xmlns="http://www.w3.org/2000/svg">
<path d="M0.732569 7.32602C0.732569 10.9675 3.68464 13.9194 7.32606 13.9194C10.9675 13.9194 13.9195 10.9675 13.9195 7.32602C13.9195 3.68454 10.9675 0.732635 7.32606 0.732635C3.68464 0.732635 0.732569 3.68454 0.732569 7.32602ZM0 7.32602C0 3.28 3.27996 0 7.32606 0C11.3722 0 14.6521 3.28 14.6521 7.32602C14.6521 11.372 11.3722 14.652 7.32606 14.652C3.27996 14.652 0 11.372 0 7.32602Z" fill="black"/>
<path d="M20.5406 7.32602C20.5406 10.6507 23.2358 13.3462 26.5607 13.3462C29.8856 13.3462 32.5807 10.6507 32.5807 7.32602C32.5807 4.00129 29.8856 1.30576 26.5607 1.30576C23.2358 1.30576 20.5406 4.00129 20.5406 7.32602ZM19.8716 7.32602C19.8716 3.63185 22.8665 0.636978 26.5607 0.636978C30.2549 0.636978 33.2497 3.63185 33.2497 7.32602C33.2497 11.0202 30.2549 14.015 26.5607 14.015C22.8665 14.015 19.8716 11.0202 19.8716 7.32602Z" fill="black"/>
<path d="M40.3486 7.32602C40.3486 10.3343 42.7872 12.7726 45.7953 12.7726C48.8034 12.7726 51.2419 10.3343 51.2419 7.32602C51.2419 4.3177 48.8034 1.87935 45.7953 1.87935C42.7872 1.87935 40.3486 4.3177 40.3486 7.32602ZM39.7433 7.32602C39.7433 3.98363 42.4529 1.27405 45.7953 1.27405C49.1377 1.27405 51.8472 3.98363 51.8472 7.32602C51.8472 10.6684 49.1377 13.378 45.7953 13.378C42.4529 13.378 39.7433 10.6684 39.7433 7.32602Z" fill="black"/>
<path d="M60.1564 7.32602C60.1564 10.0175 62.3384 12.1995 65.0299 12.1995C67.7214 12.1995 69.9033 10.0175 69.9033 7.32602C69.9033 4.63453 67.7214 2.45255 65.0299 2.45255C62.3384 2.45255 60.1564 4.63453 60.1564 7.32602ZM59.6149 7.32602C59.6149 4.33543 62.0393 1.91112 65.0299 1.91112C68.0205 1.91112 70.4448 4.33543 70.4448 7.32602C70.4448 10.3166 68.0205 12.7409 65.0299 12.7409C62.0393 12.7409 59.6149 10.3166 59.6149 7.32602Z" fill="black"/>
<path d="M79.9644 7.32602C79.9644 9.70089 81.8896 11.6261 84.2645 11.6261C86.6394 11.6261 88.5646 9.70089 88.5646 7.32602C88.5646 4.95115 86.6394 3.02589 84.2645 3.02589C81.8896 3.02589 79.9644 4.95115 79.9644 7.32602ZM79.4866 7.32602C79.4866 4.68721 81.6257 2.54813 84.2645 2.54813C86.9033 2.54813 89.0424 4.68721 89.0424 7.32602C89.0424 9.96475 86.9033 12.1038 84.2645 12.1038C81.6257 12.1038 79.4866 9.96475 79.4866 7.32602Z" fill="black"/>
<path d="M99.7724 7.32602C99.7724 9.38411 101.441 11.0527 103.499 11.0527C105.557 11.0527 107.226 9.38411 107.226 7.32602C107.226 5.26792 105.557 3.59932 103.499 3.59932C101.441 3.59932 99.7724 5.26792 99.7724 7.32602ZM99.3583 7.32602C99.3583 5.039 101.212 3.1852 103.499 3.1852C105.786 3.1852 107.64 5.039 107.64 7.32602C107.64 9.61297 105.786 11.4668 103.499 11.4668C101.212 11.4668 99.3583 9.61297 99.3583 7.32602Z" fill="black"/>
<path d="M119.58 7.32602C119.58 9.06773 120.992 10.4795 122.734 10.4795C124.475 10.4795 125.887 9.06773 125.887 7.32602C125.887 5.58431 124.475 4.17253 122.734 4.17253C120.992 4.17253 119.58 5.58431 119.58 7.32602ZM119.23 7.32602C119.23 5.39085 120.798 3.82227 122.734 3.82227C124.669 3.82227 126.237 5.39085 126.237 7.32602C126.237 9.26119 124.669 10.8298 122.734 10.8298C120.798 10.8298 119.23 9.26119 119.23 7.32602Z" fill="black"/>
<path d="M139.388 7.32602C139.388 8.75087 140.543 9.90616 141.968 9.90616C143.393 9.90616 144.548 8.75087 144.548 7.32602C144.548 5.90109 143.393 4.74588 141.968 4.74588C140.543 4.74588 139.388 5.90109 139.388 7.32602ZM139.102 7.32602C139.102 5.74277 140.385 4.45934 141.968 4.45934C143.551 4.45934 144.835 5.74277 144.835 7.32602C144.835 8.90919 143.551 10.1927 141.968 10.1927C140.385 10.1927 139.102 8.90919 139.102 7.32602Z" fill="black"/>
<path d="M159.196 7.32602C159.196 8.43433 160.095 9.33272 161.203 9.33272C162.311 9.33272 163.21 8.43433 163.21 7.32602C163.21 6.21771 162.311 5.31924 161.203 5.31924C160.095 5.31924 159.196 6.21771 159.196 7.32602ZM158.973 7.32602C158.973 6.09462 159.971 5.09631 161.203 5.09631C162.434 5.09631 163.433 6.09462 163.433 7.32602C163.433 8.55741 162.434 9.55563 161.203 9.55563C159.971 9.55563 158.973 8.55741 158.973 7.32602Z" fill="black"/>
<path d="M179.004 7.32602C179.004 8.11748 179.646 8.75938 180.437 8.75938C181.229 8.75938 181.871 8.11748 181.871 7.32602C181.871 6.53448 181.229 5.89265 180.437 5.89265C179.646 5.89265 179.004 6.53448 179.004 7.32602ZM178.845 7.32602C178.845 6.44642 179.558 5.73337 180.437 5.73337C181.317 5.73337 182.03 6.44642 182.03 7.32602C182.03 8.20561 181.317 8.91866 180.437 8.91866C179.558 8.91866 178.845 8.20561 178.845 7.32602Z" fill="black"/>
<path d="M0.732569 7.32602C0.732569 10.9675 3.68464 13.9194 7.32606 13.9194C10.9675 13.9194 13.9195 10.9675 13.9195 7.32602C13.9195 3.68454 10.9675 0.732635 7.32606 0.732635C3.68464 0.732635 0.732569 3.68454 0.732569 7.32602Z" fill="black"/>
<path d="M20.5406 7.32602C20.5406 10.6507 23.2358 13.3462 26.5607 13.3462C29.8856 13.3462 32.5807 10.6507 32.5807 7.32602C32.5807 4.00129 29.8856 1.30576 26.5607 1.30576C23.2358 1.30576 20.5406 4.00129 20.5406 7.32602Z" fill="black"/>
<path d="M40.3486 7.32602C40.3486 10.3343 42.7872 12.7726 45.7953 12.7726C48.8034 12.7726 51.2419 10.3343 51.2419 7.32602C51.2419 4.3177 48.8034 1.87935 45.7953 1.87935C42.7872 1.87935 40.3486 4.3177 40.3486 7.32602Z" fill="black"/>
<path d="M60.1564 7.32602C60.1564 10.0175 62.3384 12.1995 65.0299 12.1995C67.7214 12.1995 69.9033 10.0175 69.9033 7.32602C69.9033 4.63453 67.7214 2.45255 65.0299 2.45255C62.3384 2.45255 60.1564 4.63453 60.1564 7.32602Z" fill="black"/>
<path d="M79.9644 7.32602C79.9644 9.70089 81.8896 11.6261 84.2645 11.6261C86.6394 11.6261 88.5646 9.70089 88.5646 7.32602C88.5646 4.95115 86.6394 3.02589 84.2645 3.02589C81.8896 3.02589 79.9644 4.95115 79.9644 7.32602Z" fill="black"/>
<path d="M99.7724 7.32602C99.7724 9.38411 101.441 11.0527 103.499 11.0527C105.557 11.0527 107.226 9.38411 107.226 7.32602C107.226 5.26792 105.557 3.59932 103.499 3.59932C101.441 3.59932 99.7724 5.26792 99.7724 7.32602Z" fill="black"/>
<path d="M119.58 7.32602C119.58 9.06773 120.992 10.4795 122.734 10.4795C124.475 10.4795 125.887 9.06773 125.887 7.32602C125.887 5.58431 124.475 4.17253 122.734 4.17253C120.992 4.17253 119.58 5.58431 119.58 7.32602Z" fill="black"/>
<path d="M139.388 7.32602C139.388 8.75087 140.543 9.90616 141.968 9.90616C143.393 9.90616 144.548 8.75087 144.548 7.32602C144.548 5.90109 143.393 4.74588 141.968 4.74588C140.543 4.74588 139.388 5.90109 139.388 7.32602Z" fill="black"/>
<path d="M159.196 7.32602C159.196 8.43433 160.095 9.33272 161.203 9.33272C162.311 9.33272 163.21 8.43433 163.21 7.32602C163.21 6.21771 162.311 5.31924 161.203 5.31924C160.095 5.31924 159.196 6.21771 159.196 7.32602Z" fill="black"/>
<path d="M179.004 7.32602C179.004 8.11748 179.646 8.75938 180.437 8.75938C181.229 8.75938 181.871 8.11748 181.871 7.32602C181.871 6.53448 181.229 5.89265 180.437 5.89265C179.646 5.89265 179.004 6.53448 179.004 7.32602Z" fill="black"/>
</svg>
